<svg width="34" height="36" viewBox="0 0 34 36" fill="none" xmlns="http://www.w3.org/2000/svg">
<path fill-rule="evenodd" clip-rule="evenodd" d="M0.985707 16.6712C1.16529 7.90346 8.28509 0.954975 17.0546 0.984899C25.7937 1.01472 32.8353 7.93395 33.0143 16.6712C33.197 25.5899 25.9751 32.983 17.0546 33.0135C14.7692 33.0213 12.5913 32.543 10.618 31.6774L2.17014 35.0739L4.23891 26.6419C2.1348 23.8703 0.909265 20.4033 0.985707 16.6712ZM1.91234 16.7489C2.0442 8.3761 8.90911 1.69863 17.2823 1.79752C25.5557 1.89523 32.1632 8.47596 32.2935 16.7489C32.4259 25.1547 25.6886 32.0794 17.2823 32.1787C15.027 32.2053 12.8776 31.7308 10.939 30.8604L3.17513 33.8456L5.04488 26.19C3.03595 23.5701 1.85661 20.2874 1.91234 16.7489Z" fill="#F1F8FE"/>
<path fill-rule="evenodd" clip-rule="evenodd" d="M3.985 17.5689C3.73947 10.2507 9.6777 4.07188 17 4.07188C24.3223 4.07188 30.2605 10.2507 30.015 17.5689C29.7776 24.645 24.0801 30.1901 17 30.1901C14.7339 30.1901 12.6094 29.622 10.7602 28.6175L6.03734 30.4862L7.36269 25.9503C5.35081 23.7365 4.09387 20.8137 3.985 17.5689ZM13.8749 10.0327L12.3428 9.87558C11.6683 10.2619 10.3116 11.2702 10.2802 12.2131C10.2409 13.3917 10.3784 16.0632 11.557 17.6936L11.5704 17.7126C12.1129 18.4849 14.7668 22.2627 18 23.6651C19.0673 24.2348 21.6379 25.1737 23.3822 24.3723C23.8668 24.0318 24.8633 23.2487 24.9733 22.8401V21.0418L21.2947 19.4713C21.0785 19.4656 20.6153 19.4884 20.4924 19.625C20.3695 19.7615 19.5421 20.5582 19.1438 20.9394H18.7341C17.4253 19.9379 14.6814 17.5833 14.1761 16.1766V15.6474L15.4393 14.3329C15.4678 14.2021 15.5076 13.8891 15.4393 13.6842C15.3711 13.4794 14.3679 11.1645 13.8749 10.0327Z" fill="#F1F8FE"/>
</svg>
