<svg width="1440" height="921" viewBox="0 0 1440 921" fill="none" xmlns="http://www.w3.org/2000/svg">
<rect width="1440" height="920" fill="url(#paint0_linear_409_477)"/>
<path d="M726 733.063V850.991V877.465H1415.8L1440 716.864V526.087L1415.8 443.274L1362.77 526.087L1264.91 506.833L1193.05 456.293L1135.57 374.465L984.676 526.087L970.305 571.814L778.693 692.149L726 733.063Z" fill="#86C7F3"/>
<path d="M44.6943 717.583L0.48041 717.583L0.480363 920.153L668.876 920.153L879.181 636.011L776.989 603.495L668.876 603.495L637.637 580.27L595.831 580.27L441.164 590.545L389.999 542.435L332.604 445.81L269.042 445.81L250.784 467.459L153.938 506.103L44.6943 717.583Z" fill="#86C7F3"/>
<path d="M6.10088e-05 754.256L0 890.265V920.465H1053L1021.94 861.536L963.764 873.415L830.545 782.44L622.502 754.256L560.578 782.44H523.191L476.35 737.115L400.576 680.59L345.469 590.979L290.92 568.03L260.691 512.87H191.344L138 443.475L57.9835 370.465L29.7478 370.465L6.10088e-05 402.78V717.892V754.256Z" fill="#46AAEA"/>
<path d="M944.453 797.65L846 920.465H1440V525.465L1384.21 588.532H1229.97L1029.78 744.54H1000.24L980.552 797.65H944.453Z" fill="#46AAEA"/>
<defs>
<linearGradient id="paint0_linear_409_477" x1="720" y1="0" x2="720" y2="920" gradientUnits="userSpaceOnUse">
<stop stop-color="#46AAEA"/>
<stop offset="1" stop-color="#E2F0FC"/>
</linearGradient>
</defs>
</svg>
