<svg width="729" height="154" viewBox="0 0 729 154" fill="none" xmlns="http://www.w3.org/2000/svg">
<path d="M7.287 115C7.287 106.723 7.24433 98.4453 7.159 90.168C7.159 81.8907 7.159 73.6133 7.159 65.336C7.159 62.0933 7.71367 59.7467 8.823 58.296C9.93233 56.8453 12.1937 56.12 15.607 56.12C20.0443 56.12 24.6097 56.12 29.303 56.12C34.0817 56.0347 38.8177 56.0347 43.511 56.12C48.2043 56.12 52.727 56.12 57.079 56.12C61.0043 56.2053 64.4603 56.8453 67.447 58.04C70.519 59.1493 72.951 61.0693 74.743 63.8C76.535 66.5307 77.431 70.2427 77.431 74.936C77.431 80.056 76.5777 84.1947 74.871 87.352C73.2497 90.424 70.9457 92.6427 67.959 94.008C64.9723 95.288 61.5163 95.928 57.591 95.928C52.471 95.8427 47.1803 95.8 41.719 95.8C36.2577 95.8 31.0097 95.8 25.975 95.8C25.975 92.6427 25.975 90.3387 25.975 88.888C25.975 87.352 26.1883 86.3707 26.615 85.944C27.0417 85.432 27.8097 85.176 28.919 85.176C30.711 85.176 32.7163 85.176 34.935 85.176C37.1537 85.176 39.4577 85.176 41.847 85.176C44.2363 85.176 46.4977 85.176 48.631 85.176C50.167 85.176 51.4897 84.8773 52.599 84.28C53.7083 83.5973 54.5617 82.5307 55.159 81.08C55.8417 79.6293 56.183 77.752 56.183 75.448C56.183 72.7173 55.671 70.712 54.647 69.432C53.7083 68.0667 52.1297 67.2987 49.911 67.128C47.607 67.0427 45.3457 67 43.127 67C40.9937 67 38.8603 67 36.727 67C34.5937 67 32.5883 67.0427 30.711 67.128C30.199 67.128 29.6443 67.3413 29.047 67.768C28.4497 68.1947 28.151 68.7493 28.151 69.432C28.151 77.0267 28.151 84.6213 28.151 92.216C28.151 99.7253 28.151 107.32 28.151 115H7.287ZM122.731 115.896C115.904 115.896 110.102 115.427 105.323 114.488C100.544 113.549 96.619 111.971 93.547 109.752C90.5603 107.448 88.3417 104.333 86.891 100.408C85.5257 96.4827 84.843 91.5333 84.843 85.56C84.843 79.416 85.5683 74.424 87.019 70.584C88.4697 66.6587 90.731 63.5867 93.803 61.368C96.9603 59.064 100.928 57.4427 105.707 56.504C110.571 55.5653 116.374 55.096 123.115 55.096C129.856 55.096 135.616 55.5653 140.395 56.504C145.174 57.4427 149.056 59.064 152.043 61.368C155.115 63.5867 157.334 66.6587 158.699 70.584C160.15 74.5093 160.875 79.5013 160.875 85.56C160.875 91.6187 160.15 96.6107 158.699 100.536C157.248 104.461 154.987 107.576 151.915 109.88C148.843 112.099 144.875 113.677 140.011 114.616C135.232 115.469 129.472 115.896 122.731 115.896ZM122.859 105.016C125.675 105.016 128.107 104.76 130.155 104.248C132.288 103.651 133.995 102.627 135.275 101.176C136.64 99.7253 137.622 97.7627 138.219 95.288C138.902 92.728 139.243 89.4853 139.243 85.56C139.243 81.5493 138.902 78.3067 138.219 75.832C137.622 73.272 136.64 71.3093 135.275 69.944C133.995 68.4933 132.288 67.512 130.155 67C128.107 66.4027 125.675 66.104 122.859 66.104C119.958 66.104 117.44 66.4027 115.307 67C113.259 67.512 111.595 68.4933 110.315 69.944C109.035 71.3093 108.054 73.272 107.371 75.832C106.688 78.3067 106.347 81.5493 106.347 85.56C106.347 89.4853 106.688 92.728 107.371 95.288C108.054 97.7627 109.035 99.7253 110.315 101.176C111.595 102.627 113.259 103.651 115.307 104.248C117.44 104.76 119.958 105.016 122.859 105.016ZM209.419 95.16C209.419 95.16 208.566 95.16 206.859 95.16C205.238 95.16 203.147 95.2027 200.587 95.288C198.027 95.288 195.382 95.288 192.651 95.288V115H171.659V63.928C171.659 61.4533 172.214 59.5333 173.323 58.168C174.432 56.8027 176.694 56.12 180.107 56.12C181.387 56.12 183.307 56.12 185.867 56.12C188.427 56.0347 191.371 55.992 194.699 55.992C198.027 55.992 201.44 55.992 204.939 55.992C208.523 55.9067 211.936 55.9067 215.179 55.992C218.422 55.992 221.238 56.0347 223.627 56.12C226.102 56.12 227.894 56.1627 229.003 56.248C233.611 56.6747 237.067 58.0827 239.371 60.472C241.675 62.776 242.827 66.5733 242.827 71.864C242.827 76.6427 242.443 80.1413 241.675 82.36C240.992 84.4933 239.84 86.1573 238.219 87.352C237.622 87.7787 236.811 88.12 235.787 88.376C234.763 88.632 233.611 88.76 232.331 88.76V89.272C232.928 89.272 233.568 89.272 234.251 89.272C235.019 89.272 235.659 89.3147 236.171 89.4C239.414 89.9973 241.334 91.2347 241.931 93.112C242.614 94.9893 242.955 96.952 242.955 99V110.264C242.955 111.885 243.126 113.08 243.467 113.848C243.808 114.531 244.022 114.915 244.107 115H228.491C226.272 115 224.523 114.659 223.243 113.976C222.048 113.293 221.451 111.843 221.451 109.624V101.176C221.451 98.5307 220.854 96.8667 219.659 96.184C218.55 95.5013 216.544 95.16 213.643 95.16H209.419ZM192.651 85.176C193.59 85.176 194.998 85.2187 196.875 85.304C198.838 85.304 200.971 85.304 203.275 85.304C205.579 85.304 207.67 85.304 209.547 85.304C211.51 85.304 212.918 85.304 213.771 85.304C215.819 85.304 217.611 84.664 219.147 83.384C220.768 82.0187 221.579 79.5013 221.579 75.832C221.579 73.272 221.11 71.2667 220.171 69.816C219.318 68.3653 217.867 67.5547 215.819 67.384C214.624 67.128 213.003 67 210.955 67C208.992 67 206.902 67 204.683 67C202.55 67 200.587 67.0427 198.795 67.128C197.003 67.128 195.68 67.128 194.827 67.128C194.656 67.128 194.23 67.256 193.547 67.512C192.95 67.768 192.651 68.408 192.651 69.432V85.176ZM250.929 56.12H321.585V67.256H296.881V108.088C296.881 110.819 296.454 112.653 295.601 113.592C294.748 114.531 292.828 115 289.841 115H275.761V67.256H250.929V56.12ZM313.259 115L333.611 66.104C334.976 62.776 336.939 60.216 339.499 58.424C342.059 56.5467 346.07 55.608 351.531 55.608C356.054 55.608 359.723 56.4613 362.539 58.168C365.355 59.8747 367.488 62.52 368.939 66.104L389.419 115H366.635L361.131 101.816H334.507L329.387 115H313.259ZM337.835 93.752H357.291L350.379 75.832C350.123 75.1493 349.824 74.552 349.483 74.04C349.142 73.4427 348.544 73.144 347.691 73.144C346.752 73.144 346.07 73.4427 345.643 74.04C345.302 74.552 345.003 75.1493 344.747 75.832L337.835 93.752ZM419.291 56.12V103.992H457.051V115H398.299V63.032C398.299 61.496 398.384 60.216 398.555 59.192C398.811 58.168 399.408 57.4 400.347 56.888C401.286 56.376 402.907 56.12 405.211 56.12H419.291Z" fill="#1072BA"/>
<path d="M499.492 101.048C501.625 101.987 504.356 102.712 507.684 103.224C511.012 103.651 514.468 103.907 518.052 103.992C521.636 104.077 524.793 104.12 527.524 104.12C528.548 104.12 529.828 104.12 531.364 104.12C532.985 104.12 534.308 104.077 535.332 103.992C537.636 103.992 539.599 103.779 541.22 103.352C542.841 102.84 544.036 102.072 544.804 101.048C545.657 100.024 546.084 98.5733 546.084 96.696C546.084 94.4773 545.444 93.0267 544.164 92.344C542.884 91.576 540.921 91.192 538.276 91.192C537.337 91.192 536.228 91.192 534.948 91.192C533.753 91.192 532.217 91.192 530.34 91.192C528.463 91.192 526.031 91.192 523.044 91.192C520.313 91.192 517.54 91.064 514.724 90.808C511.993 90.552 509.519 89.9547 507.3 89.016C505.081 87.992 503.289 86.4133 501.924 84.28C500.644 82.0613 500.004 79.032 500.004 75.192C500.004 70.584 500.772 67 502.308 64.44C503.929 61.7947 506.148 59.832 508.964 58.552C511.865 57.272 515.279 56.4613 519.204 56.12C523.215 55.7787 527.609 55.608 532.388 55.608C535.289 55.608 538.404 55.6507 541.732 55.736C545.145 55.8213 548.303 55.9493 551.204 56.12C554.191 56.2907 556.495 56.5893 558.116 57.016C561.017 57.1867 563.236 57.9547 564.772 59.32C566.393 60.6853 567.204 62.392 567.204 64.44C567.204 64.7813 567.204 65.3787 567.204 66.232C567.204 67 567.204 67.768 567.204 68.536C567.204 69.304 567.204 69.7307 567.204 69.816C566.521 69.2187 565.241 68.7493 563.364 68.408C561.572 67.9813 559.439 67.6827 556.964 67.512C554.575 67.3413 552.185 67.2133 549.796 67.128C547.492 67.0427 545.444 67 543.652 67H532.132C529.828 67 527.865 67.2133 526.244 67.64C524.708 67.9813 523.556 68.6213 522.788 69.56C522.02 70.4987 521.636 71.8213 521.636 73.528C521.636 74.8933 521.892 76.0027 522.404 76.856C522.916 77.624 523.727 78.1787 524.836 78.52C525.945 78.8613 527.396 79.032 529.188 79.032C534.393 79.032 538.575 79.032 541.732 79.032C544.889 79.032 546.937 79.032 547.876 79.032C551.972 79.032 555.556 79.3733 558.628 80.056C561.7 80.7387 564.089 82.2747 565.796 84.664C567.503 87.0533 568.356 90.7227 568.356 95.672C568.356 100.365 567.417 104.12 565.54 106.936C563.663 109.667 561.06 111.672 557.732 112.952C554.489 114.232 550.692 115 546.34 115.256C542.244 115.512 538.361 115.64 534.692 115.64C531.023 115.64 527.14 115.64 523.044 115.64C519.631 115.555 516.473 115.384 513.572 115.128C510.756 114.957 508.281 114.616 506.148 114.104C504.015 113.507 502.351 112.739 501.156 111.8C500.047 110.776 499.492 109.453 499.492 107.832V101.048ZM573.509 115L593.861 66.104C595.226 62.776 597.189 60.216 599.749 58.424C602.309 56.5467 606.32 55.608 611.781 55.608C616.304 55.608 619.973 56.4613 622.789 58.168C625.605 59.8747 627.738 62.52 629.189 66.104L649.669 115H626.885L621.381 101.816H594.757L589.637 115H573.509ZM598.085 93.752H617.541L610.629 75.832C610.373 75.1493 610.074 74.552 609.733 74.04C609.392 73.4427 608.794 73.144 607.941 73.144C607.002 73.144 606.32 73.4427 605.893 74.04C605.552 74.552 605.253 75.1493 604.997 75.832L598.085 93.752ZM658.549 115V62.776C658.549 60.0453 659.018 58.2533 659.957 57.4C660.896 56.5467 662.73 56.12 665.461 56.12H724.597V67.128H679.541V79.416H720.501V90.296H679.541V103.992H724.597V115H658.549Z" fill="white"/>
</svg>
