<svg width="88" height="49" viewBox="0 0 88 49" fill="none" xmlns="http://www.w3.org/2000/svg">
<path d="M38.4538 3.42127C44.7181 1.97278 51.2012 0.811002 56.8379 0.131485C56.7489 0.0498364 56.6303 0 56.5 0C49.4358 -3.33786e-06 40.8869 1.63766 33.1829 3.70458C25.4762 5.77223 18.5721 8.28124 14.7885 10.0469C14.5383 10.1637 14.4301 10.4612 14.5469 10.7114C14.6637 10.9617 14.9612 11.0699 15.2114 10.9531C16.5599 10.3238 18.3204 9.59489 20.3827 8.82323C23.551 7.55034 27.3601 6.31778 31.4571 5.18843C33.257 4.69228 35.1141 4.2156 36.9989 3.76382C37.4825 3.64718 37.9676 3.53291 38.4538 3.42127Z" fill="#F1F8FE"/>
<path d="M29.6689 5.69331C12.4043 8.66555 0 16.8585 0 26.5C0 38.6503 19.6995 48.5 44 48.5C68.3005 48.5 88 38.6503 88 26.5C88 14.3497 68.3005 4.5 44 4.5C41.6504 4.5 39.3439 4.59208 37.094 4.76942C35.2677 5.20868 33.4681 5.67137 31.7228 6.15248C31.1056 6.3226 30.4955 6.49497 29.8934 6.66937C34.3087 5.91254 39.0539 5.5 44 5.5C56.0287 5.5 66.8692 7.93992 74.6655 11.8381C82.5216 15.7661 87 21.0077 87 26.5C87 31.9923 82.5216 37.2339 74.6655 41.1619C66.8692 45.0601 56.0287 47.5 44 47.5C31.9713 47.5 21.1308 45.0601 13.3345 41.1619C5.47839 37.2339 1 31.9923 1 26.5C1 21.0077 5.47839 15.7661 13.3345 11.8381C14.8866 11.062 16.5593 10.3438 18.3381 9.69107C18.8445 9.46312 19.372 9.23667 19.9182 9.01202C22.7191 7.86008 26.0556 6.73845 29.6689 5.69331Z" fill="#F1F8FE"/>
<path d="M8 34V30.1111H12.9299C13.7418 30.1111 14.4 29.4529 14.4 28.641C14.4 28.1687 14.1731 27.7252 13.7901 27.4488L12.475 26.5C11.2662 25.6278 10.55 24.228 10.55 22.7374V21.831C10.55 21.0851 10.8444 20.3693 11.3691 19.8393C11.9008 19.3022 12.6252 19 13.381 19H21V23.4444H18.294C17.6622 23.4444 17.15 23.9566 17.15 24.5884C17.15 24.9204 17.2942 25.236 17.5452 25.4533L19.538 27.1786C20.4665 27.9825 21 29.1501 21 30.3783V30.68C21 31.3929 20.7705 32.0868 20.3456 32.6592C19.7192 33.5027 18.7306 34 17.68 34H8Z" fill="#F1F8FE"/>
<path d="M27 19H22V34H27V19Z" fill="#F1F8FE"/>
<path d="M28 34V30.1111H30.9299C31.7418 30.1111 32.4 29.4529 32.4 28.641C32.4 28.1687 32.1731 27.7252 31.7901 27.4488L30.475 26.5C29.2662 25.6278 28.55 24.228 28.55 22.7374V21.831C28.55 21.0851 28.8444 20.3693 29.3691 19.8393C29.9008 19.3022 30.6252 19 31.381 19H39V23.4444H36.294C35.6622 23.4444 35.15 23.9566 35.15 24.5884C35.15 24.9204 35.2942 25.236 35.5452 25.4533L37.538 27.1786C38.4665 27.9825 39 29.1501 39 30.3783V30.68C39 31.3929 38.7705 32.0868 38.3456 32.6592C37.7192 33.5027 36.7306 34 35.68 34H28Z" fill="#F1F8FE"/>
<path d="M52 22.3333V19H45.4545C44.0589 19 42.7219 19.561 41.7442 20.5569L41.6151 20.6883C40.58 21.7426 40 23.1612 40 24.6387V27.8778C40 29.3202 40.5093 30.7163 41.438 31.8198L41.8679 32.3307C42.7586 33.389 44.0712 34 45.4545 34H52V30.1111H47.258C46.1541 30.1111 45.1463 29.4832 44.6598 28.4922C44.465 28.0953 44.3636 27.659 44.3636 27.2168V25.2277C44.3636 24.7855 44.465 24.3492 44.6598 23.9522C45.1463 22.9613 46.1541 22.3333 47.258 22.3333H52Z" fill="#F1F8FE"/>
<path d="M53 34V19H64V23.4444H57V25.1111H62.5V28.4444H57.5V30.1111H64V34H53Z" fill="#F1F8FE"/>
<path d="M65 19V34H68.6296V27.3333L72.2593 33.4444L75.3704 28.4444V34H79V19H75.3704L72.2593 25.1111L68.6296 19H65Z" fill="#F1F8FE"/>
</svg>
